solid GTS-1000
facet normal -0.382683432364852 -0.923879532511383 -6.02807847499868e-008
  outer loop
    vertex -41.656611791603 -60.6867827906172 49.5320938910943
    vertex -41.9580880839639 -60.5619073194586 51.0320938162797
    vertex -41.9580879852248 -60.5619072624865 49.5320938162797
  endloop
endfacet
facet normal -0.382683432364852 -0.923879532511383 -6.02807847499868e-008
  outer loop
    vertex -41.9580880839639 -60.5619073194586 51.0320938162797
    vertex -41.656611791603 -60.6867827906172 49.5320938910943
    vertex -41.6566118903422 -60.6867828475892 51.0320938910943
  endloop
endfacet
facet normal -0.130526192220054 -0.991444861373809 -4.62484794504516e-008
  outer loop
    vertex -41.9580879852248 -60.5619072624865 49.5320938162797
    vertex -42.2816118903421 -60.5193146023199 51.0320937258449
    vertex -42.2816117916029 -60.5193145453479 49.5320937258449
  endloop
endfacet
facet normal -0.130526192220054 -0.991444861373809 -4.62484794504516e-008
  outer loop
    vertex -42.2816118903421 -60.5193146023199 51.0320937258449
    vertex -41.9580879852248 -60.5619072624865 49.5320938162797
    vertex -41.9580880839639 -60.5619073194586 51.0320938162797
  endloop
endfacet
facet normal 0.130526192220076 -0.991444861373807 -2.90644167032428e-008
  outer loop
    vertex -42.2816117916029 -60.5193145453479 49.5320937258449
    vertex -42.6051356967202 -60.5619073194586 51.0320936259528
    vertex -42.605135597981 -60.5619072624865 49.5320936259528
  endloop
endfacet
facet normal 0.130526192220076 -0.991444861373807 -2.90644167032428e-008
  outer loop
    vertex -42.6051356967202 -60.5619073194586 51.0320936259528
    vertex -42.2816117916029 -60.5193145453479 49.5320937258449
    vertex -42.2816118903421 -60.5193146023199 51.0320937258449
  endloop
endfacet
facet normal 0.382683432364673 -0.923879532511459 -9.8996619904287e-009
  outer loop
    vertex -42.605135597981 -60.5619072624865 49.5320936259528
    vertex -42.9066118903421 -60.6867828475892 51.032093523411
    vertex -42.9066117916029 -60.6867827906172 49.532093523411
  endloop
endfacet
facet normal 0.382683432364673 -0.923879532511459 -9.8996619904287e-009
  outer loop
    vertex -42.9066118903421 -60.6867828475892 51.032093523411
    vertex -42.605135597981 -60.5619072624865 49.5320936259528
    vertex -42.6051356967202 -60.5619073194586 51.0320936259528
  endloop
endfacet
facet normal 0.60876142900909 -0.793353340290952 9.93973832645807e-009
  outer loop
    vertex -42.9066117916029 -60.6867827906172 49.532093523411
    vertex -43.1654953668252 -60.8854311258367 51.0320934252075
    vertex -43.165495268086 -60.8854310688646 49.5320934252075
  endloop
endfacet
facet normal 0.60876142900909 -0.793353340290952 9.93973832645807e-009
  outer loop
    vertex -43.1654953668252 -60.8854311258367 51.0320934252075
    vertex -42.9066117916029 -60.6867827906172 49.532093523411
    vertex -42.9066118903421 -60.6867828475892 51.032093523411
  endloop
endfacet
facet normal 0.793353340291079 -0.608761429008924 2.91017619112805e-008
  outer loop
    vertex -43.3641435463334 -61.1443145453477 49.5320933380346
    vertex -43.1654953668252 -60.8854311258367 51.0320934252075
    vertex -43.3641436450725 -61.1443146023198 51.0320933380346
  endloop
endfacet
facet normal 0.793353340291079 -0.608761429008924 2.91017619112805e-008
  outer loop
    vertex -43.1654953668252 -60.8854311258367 51.0320934252075
    vertex -43.3641435463334 -61.1443145453477 49.5320933380346
    vertex -43.165495268086 -60.8854310688646 49.5320934252075
  endloop
endfacet
facet normal 0.923879532511358 -0.382683432364915 4.62805484969534e-008
  outer loop
    vertex -43.4890190744641 -61.4457907389696 49.5320932678332
    vertex -43.3641436450725 -61.1443146023198 51.0320933380346
    vertex -43.4890191732033 -61.4457907959417 51.0320932678332
  endloop
endfacet
facet normal 0.923879532511358 -0.382683432364915 4.62805484969534e-008
  outer loop
    vertex -43.3641436450725 -61.1443146023198 51.0320933380346
    vertex -43.4890190744641 -61.4457907389696 49.5320932678332
    vertex -43.3641435463334 -61.1443145453477 49.5320933380346
  endloop
endfacet
facet normal 6.58261152230938e-008 3.79813837893034e-008 -0.999999999999997
  outer loop
    vertex -43.4890190744643 -30.0928383517259 49.5320931959984
    vertex -43.5316117916028 -61.7693145453478 49.5320932193873
    vertex -43.531611791603 -29.7693145453478 49.5320932193873
  endloop
endfacet
facet normal 6.58261152230938e-008 3.79813837893034e-008 -0.999999999999997
  outer loop
    vertex -43.5316117916028 -61.7693145453478 49.5320932193873
    vertex -43.4890190744643 -30.0928383517259 49.5320931959984
    vertex -43.4890190744641 -61.4457907389696 49.5320932678332
  endloop
endfacet
facet normal 6.58261152230938e-008 3.79813837893034e-008 -0.999999999999997
  outer loop
    vertex -43.4890190744641 -61.4457907389696 49.5320932678332
    vertex -43.4890190744643 -30.0928383517259 49.5320931959984
    vertex -43.3641435463335 -30.3943145453478 49.5320931992605
  endloop
endfacet
facet normal 6.58261152230938e-008 3.79813837893034e-008 -0.999999999999997
  outer loop
    vertex -43.4890190744641 -61.4457907389696 49.5320932678332
    vertex -43.3641435463335 -30.3943145453478 49.5320931992605
    vertex -43.3641435463334 -61.1443145453477 49.5320933380346
  endloop
endfacet
facet normal 6.58261152230938e-008 3.79813837893034e-008 -0.999999999999997
  outer loop
    vertex -43.3641435463334 -61.1443145453477 49.5320933380346
    vertex -43.3641435463335 -30.3943145453478 49.5320931992605
    vertex -43.165495268086 -30.6531980218311 49.5320932289511
  endloop
endfacet
facet normal 6.58261152230938e-008 3.79813837893034e-008 -0.999999999999997
  outer loop
    vertex -43.3641435463334 -61.1443145453477 49.5320933380346
    vertex -43.165495268086 -30.6531980218311 49.5320932289511
    vertex -43.165495268086 -60.8854310688646 49.5320934252075
  endloop
endfacet
facet normal 6.58261152230938e-008 3.79813837893034e-008 -0.999999999999997
  outer loop
    vertex -43.165495268086 -60.8854310688646 49.5320934252075
    vertex -43.165495268086 -30.6531980218311 49.5320932289511
    vertex -42.9066117916029 -30.8518463000784 49.5320932830471
  endloop
endfacet
facet normal 6.58261152230938e-008 3.79813837893034e-008 -0.999999999999997
  outer loop
    vertex -43.165495268086 -60.8854310688646 49.5320934252075
    vertex -42.9066117916029 -30.8518463000784 49.5320932830471
    vertex -42.9066117916029 -60.6867827906172 49.532093523411
  endloop
endfacet
facet normal 6.58261152230938e-008 3.79813837893034e-008 -0.999999999999997
  outer loop
    vertex -42.9066117916029 -60.6867827906172 49.532093523411
    vertex -42.9066117916029 -30.8518463000784 49.5320932830471
    vertex -42.605135597981 -30.9767218282092 49.5320933578617
  endloop
endfacet
facet normal 6.58261152230938e-008 3.79813837893034e-008 -0.999999999999997
  outer loop
    vertex -42.9066117916029 -60.6867827906172 49.532093523411
    vertex -42.605135597981 -30.9767218282092 49.5320933578617
    vertex -42.605135597981 -60.5619072624865 49.5320936259528
  endloop
endfacet
facet normal 6.58261152230938e-008 3.79813837893034e-008 -0.999999999999997
  outer loop
    vertex -42.605135597981 -60.5619072624865 49.5320936259528
    vertex -42.605135597981 -30.9767218282092 49.5320933578617
    vertex -42.2816117916029 -31.0193145453479 49.5320934482965
  endloop
endfacet
facet normal 6.58261152230938e-008 3.79813837893034e-008 -0.999999999999997
  outer loop
    vertex -42.605135597981 -60.5619072624865 49.5320936259528
    vertex -42.2816117916029 -31.0193145453479 49.5320934482965
    vertex -42.2816117916029 -60.5193145453479 49.5320937258449
  endloop
endfacet
facet normal 6.58261152230938e-008 3.79813837893034e-008 -0.999999999999997
  outer loop
    vertex -42.2816117916029 -60.5193145453479 49.5320937258449
    vertex -42.2816117916029 -31.0193145453479 49.5320934482965
    vertex -41.9580879852247 -30.9767218282092 49.5320935481886
  endloop
endfacet
facet normal 6.58261152230938e-008 3.79813837893034e-008 -0.999999999999997
  outer loop
    vertex -42.2816117916029 -60.5193145453479 49.5320937258449
    vertex -41.9580879852247 -30.9767218282092 49.5320935481886
    vertex -41.9580879852248 -60.5619072624865 49.5320938162797
  endloop
endfacet
facet normal 6.58261152230938e-008 3.79813837893034e-008 -0.999999999999997
  outer loop
    vertex -41.9580879852248 -60.5619072624865 49.5320938162797
    vertex -41.9580879852247 -30.9767218282092 49.5320935481886
    vertex -41.656611791603 -60.6867827906172 49.5320938910943
  endloop
endfacet
facet normal 6.58261152230938e-008 3.79813837893034e-008 -0.999999999999997
  outer loop
    vertex -41.656611791603 -60.6867827906172 49.5320938910943
    vertex -41.9580879852247 -30.9767218282092 49.5320935481886
    vertex -41.6566117916029 -30.8518463000784 49.5320936507304
  endloop
endfacet
facet normal 6.58261152230938e-008 3.79813837893034e-008 -0.999999999999997
  outer loop
    vertex -41.656611791603 -60.6867827906172 49.5320938910943
    vertex -41.6566117916029 -30.8518463000784 49.5320936507304
    vertex -41.3977283151198 -60.8854310688646 49.5320939451903
  endloop
endfacet
facet normal 6.58261152230938e-008 3.79813837893034e-008 -0.999999999999997
  outer loop
    vertex -41.3977283151198 -60.8854310688646 49.5320939451903
    vertex -41.6566117916029 -30.8518463000784 49.5320936507304
    vertex -41.3977283151196 -30.6531980218311 49.5320937489339
  endloop
endfacet
facet normal 6.58261152230938e-008 3.79813837893034e-008 -0.999999999999997
  outer loop
    vertex -41.3977283151198 -60.8854310688646 49.5320939451903
    vertex -41.3977283151196 -30.6531980218311 49.5320937489339
    vertex -41.1990800368725 -61.1443145453477 49.5320939748809
  endloop
endfacet
facet normal 6.58261152230938e-008 3.79813837893034e-008 -0.999999999999997
  outer loop
    vertex -41.1990800368725 -61.1443145453477 49.5320939748809
    vertex -41.3977283151196 -30.6531980218311 49.5320937489339
    vertex -41.1990800368723 -30.3943145453478 49.5320938361067
  endloop
endfacet
facet normal 6.58261152230938e-008 3.79813837893034e-008 -0.999999999999997
  outer loop
    vertex -41.1990800368725 -61.1443145453477 49.5320939748809
    vertex -41.1990800368723 -30.3943145453478 49.5320938361067
    vertex -41.0742045087417 -61.4457907389696 49.5320939781429
  endloop
endfacet
facet normal 6.58261152230938e-008 3.79813837893034e-008 -0.999999999999997
  outer loop
    vertex -41.0742045087417 -61.4457907389696 49.5320939781429
    vertex -41.1990800368723 -30.3943145453478 49.5320938361067
    vertex -41.0742045087415 -30.0928383517259 49.5320939063081
  endloop
endfacet
facet normal 6.58261152230938e-008 3.79813837893034e-008 -0.999999999999997
  outer loop
    vertex -41.0742045087417 -61.4457907389696 49.5320939781429
    vertex -41.0742045087415 -30.0928383517259 49.5320939063081
    vertex -41.031611791603 -61.7693145453478 49.5320939547541
  endloop
endfacet
facet normal 6.58261152230938e-008 3.79813837893034e-008 -0.999999999999997
  outer loop
    vertex -41.031611791603 -61.7693145453478 49.5320939547541
    vertex -41.0742045087415 -30.0928383517259 49.5320939063081
    vertex -41.0316117916028 -29.7693145453478 49.5320939547541
  endloop
endfacet
facet normal 6.58261152230938e-008 3.79813837893034e-008 -0.999999999999997
  outer loop
    vertex -51.2805852916084 -26.5193145453477 49.532093795232
    vertex -43.4890190744643 -29.4457907389697 49.5320932678332
    vertex -51.2805852916076 -65.0193145453476 49.5320910094396
  endloop
endfacet
facet normal 6.58261152230938e-008 3.79813837893034e-008 -0.999999999999997
  outer loop
    vertex -43.4890190744643 -29.4457907389697 49.5320932678332
    vertex -51.2805852916084 -26.5193145453477 49.532093795232
    vertex -43.3641435463335 -29.1443145453478 49.5320933380346
  endloop
endfacet
facet normal 6.58261152230938e-008 3.79813837893034e-008 -0.999999999999997
  outer loop
    vertex -43.3641435463335 -29.1443145453478 49.5320933380346
    vertex -51.2805852916084 -26.5193145453477 49.532093795232
    vertex -43.1654952680862 -28.8854310688645 49.5320934252075
  endloop
endfacet
facet normal 6.58261152230938e-008 3.79813837893034e-008 -0.999999999999997
  outer loop
    vertex -43.1654952680862 -28.8854310688645 49.5320934252075
    vertex -51.2805852916084 -26.5193145453477 49.532093795232
    vertex -42.9066117916029 -28.6867827906172 49.532093523411
  endloop
endfacet
facet normal 6.58261152230938e-008 3.79813837893034e-008 -0.999999999999997
  outer loop
    vertex -42.9066117916029 -28.6867827906172 49.532093523411
    vertex -51.2805852916084 -26.5193145453477 49.532093795232
    vertex -42.6051355979811 -28.5619072624864 49.5320936259528
  endloop
endfacet
facet normal 6.58261152230938e-008 3.79813837893034e-008 -0.999999999999997
  outer loop
    vertex -42.6051355979811 -28.5619072624864 49.5320936259528
    vertex -51.2805852916084 -26.5193145453477 49.532093795232
    vertex -33.2826382915974 -26.5193145453477 49.5320936564578
  endloop
endfacet
facet normal 6.58261152230938e-008 3.79813837893034e-008 -0.999999999999997
  outer loop
    vertex -51.2805852916076 -65.0193145453476 49.5320910094396
    vertex -43.4890190744643 -29.4457907389697 49.5320932678332
    vertex -43.531611791603 -29.7693145453478 49.5320932193873
  endloop
endfacet
facet normal 6.58261152230938e-008 3.79813837893034e-008 -0.999999999999997
  outer loop
    vertex -42.6051355979811 -28.5619072624864 49.5320936259528
    vertex -33.2826382915974 -26.5193145453477 49.5320936564578
    vertex -42.2816117916029 -28.5193145453477 49.5320937258449
  endloop
endfacet
facet normal 6.58261152230938e-008 3.79813837893034e-008 -0.999999999999997
  outer loop
    vertex -42.2816117916029 -28.5193145453477 49.5320937258449
    vertex -33.2826382915974 -26.5193145453477 49.5320936564578
    vertex -41.9580879852248 -28.5619072624864 49.5320938162797
  endloop
endfacet
facet normal 6.58261152230938e-008 3.79813837893034e-008 -0.999999999999997
  outer loop
    vertex -41.9580879852248 -28.5619072624864 49.5320938162797
    vertex -33.2826382915974 -26.5193145453477 49.5320936564578
    vertex -41.6566117916029 -28.6867827906172 49.5320938910943
  endloop
endfacet
facet normal 6.58261152230938e-008 3.79813837893034e-008 -0.999999999999997
  outer loop
    vertex -41.6566117916029 -28.6867827906172 49.5320938910943
    vertex -33.2826382915974 -26.5193145453477 49.5320936564578
    vertex -41.3977283151198 -28.8854310688645 49.5320939451903
  endloop
endfacet
facet normal 6.58261152230938e-008 3.79813837893034e-008 -0.999999999999997
  outer loop
    vertex -41.3977283151198 -28.8854310688645 49.5320939451903
    vertex -33.2826382915974 -26.5193145453477 49.5320936564578
    vertex -41.1990800368723 -29.1443145453478 49.5320939748809
  endloop
endfacet
facet normal 6.58261152230938e-008 3.79813837893034e-008 -0.999999999999997
  outer loop
    vertex -41.1990800368723 -29.1443145453478 49.5320939748809
    vertex -33.2826382915974 -26.5193145453477 49.5320936564578
    vertex -41.0742045087415 -29.4457907389697 49.5320939781429
  endloop
endfacet
facet normal 6.58261152230938e-008 3.79813837893034e-008 -0.999999999999997
  outer loop
    vertex -41.0742045087415 -29.4457907389697 49.5320939781429
    vertex -33.2826382915974 -26.5193145453477 49.5320936564578
    vertex -41.0316117916028 -29.7693145453478 49.5320939547541
  endloop
endfacet
facet normal 6.58261152230938e-008 3.79813837893034e-008 -0.999999999999997
  outer loop
    vertex -51.2805852916076 -65.0193145453476 49.5320910094396
    vertex -42.605135597981 -62.976721828209 49.5320933578617
    vertex -33.2826382915974 -65.0193145453476 49.5320935176836
  endloop
endfacet
facet normal 6.58261152230938e-008 3.79813837893034e-008 -0.999999999999997
  outer loop
    vertex -42.605135597981 -62.976721828209 49.5320933578617
    vertex -51.2805852916076 -65.0193145453476 49.5320910094396
    vertex -42.9066117916027 -62.8518463000783 49.5320932830471
  endloop
endfacet
facet normal 6.58261152230938e-008 3.79813837893034e-008 -0.999999999999997
  outer loop
    vertex -42.9066117916027 -62.8518463000783 49.5320932830471
    vertex -51.2805852916076 -65.0193145453476 49.5320910094396
    vertex -43.165495268086 -62.6531980218309 49.5320932289511
  endloop
endfacet
facet normal 6.58261152230938e-008 3.79813837893034e-008 -0.999999999999997
  outer loop
    vertex -43.165495268086 -62.6531980218309 49.5320932289511
    vertex -51.2805852916076 -65.0193145453476 49.5320910094396
    vertex -43.3641435463333 -62.3943145453478 49.5320931992605
  endloop
endfacet
facet normal 6.58261152230938e-008 3.79813837893034e-008 -0.999999999999997
  outer loop
    vertex -43.3641435463333 -62.3943145453478 49.5320931992605
    vertex -51.2805852916076 -65.0193145453476 49.5320910094396
    vertex -43.4890190744641 -62.0928383517259 49.5320931959984
  endloop
endfacet
facet normal 6.58261152230938e-008 3.79813837893034e-008 -0.999999999999997
  outer loop
    vertex -43.4890190744641 -62.0928383517259 49.5320931959984
    vertex -51.2805852916076 -65.0193145453476 49.5320910094396
    vertex -43.5316117916028 -61.7693145453478 49.5320932193873
  endloop
endfacet
facet normal 6.58261152230938e-008 3.79813837893034e-008 -0.999999999999997
  outer loop
    vertex -43.5316117916028 -61.7693145453478 49.5320932193873
    vertex -51.2805852916076 -65.0193145453476 49.5320910094396
    vertex -43.531611791603 -29.7693145453478 49.5320932193873
  endloop
endfacet
facet normal 6.58261152230938e-008 3.79813837893034e-008 -0.999999999999997
  outer loop
    vertex -33.2826382915974 -65.0193145453476 49.5320935176836
    vertex -42.605135597981 -62.976721828209 49.5320933578617
    vertex -42.2816117916029 -63.0193145453476 49.5320934482965
  endloop
endfacet
facet normal 6.58261152230938e-008 3.79813837893034e-008 -0.999999999999997
  outer loop
    vertex -33.2826382915974 -65.0193145453476 49.5320935176836
    vertex -42.2816117916029 -63.0193145453476 49.5320934482965
    vertex -41.9580879852248 -62.976721828209 49.5320935481886
  endloop
endfacet
facet normal 6.58261152230938e-008 3.79813837893034e-008 -0.999999999999997
  outer loop
    vertex -33.2826382915974 -65.0193145453476 49.5320935176836
    vertex -41.9580879852248 -62.976721828209 49.5320935481886
    vertex -41.6566117916029 -62.8518463000783 49.5320936507304
  endloop
endfacet
facet normal 6.58261152230938e-008 3.79813837893034e-008 -0.999999999999997
  outer loop
    vertex -33.2826382915974 -65.0193145453476 49.5320935176836
    vertex -41.6566117916029 -62.8518463000783 49.5320936507304
    vertex -41.3977283151198 -62.6531980218309 49.5320937489339
  endloop
endfacet
facet normal 6.58261152230938e-008 3.79813837893034e-008 -0.999999999999997
  outer loop
    vertex -33.2826382915974 -65.0193145453476 49.5320935176836
    vertex -41.3977283151198 -62.6531980218309 49.5320937489339
    vertex -41.1990800368724 -62.3943145453478 49.5320938361067
  endloop
endfacet
facet normal 6.58261152230938e-008 3.79813837893034e-008 -0.999999999999997
  outer loop
    vertex -33.2826382915974 -65.0193145453476 49.5320935176836
    vertex -41.1990800368724 -62.3943145453478 49.5320938361067
    vertex -41.0742045087417 -62.0928383517259 49.5320939063081
  endloop
endfacet
facet normal 6.58261152230938e-008 3.79813837893034e-008 -0.999999999999997
  outer loop
    vertex -33.2826382915974 -65.0193145453476 49.5320935176836
    vertex -41.0742045087417 -62.0928383517259 49.5320939063081
    vertex -41.031611791603 -61.7693145453478 49.5320939547541
  endloop
endfacet
facet normal 6.58261152230938e-008 3.79813837893034e-008 -0.999999999999997
  outer loop
    vertex -33.2826382915974 -65.0193145453476 49.5320935176836
    vertex -41.031611791603 -61.7693145453478 49.5320939547541
    vertex -41.0316117916028 -29.7693145453478 49.5320939547541
  endloop
endfacet
facet normal 6.58261152230938e-008 3.79813837893034e-008 -0.999999999999997
  outer loop
    vertex -33.2826382915974 -65.0193145453476 49.5320935176836
    vertex -41.0316117916028 -29.7693145453478 49.5320939547541
    vertex -33.2826382915974 -26.5193145453477 49.5320936564578
  endloop
endfacet
facet normal 0.793353340291417 -0.608761429008483 2.91017619004152e-008
  outer loop
    vertex -43.3641435463335 -29.1443145453478 49.5320933380346
    vertex -43.1654953668253 -28.8854311258366 51.0320934252075
    vertex -43.3641436450726 -29.1443146023198 51.0320933380346
  endloop
endfacet
facet normal 0.793353340291417 -0.608761429008483 2.91017619004152e-008
  outer loop
    vertex -43.1654953668253 -28.8854311258366 51.0320934252075
    vertex -43.3641435463335 -29.1443145453478 49.5320933380346
    vertex -43.1654952680862 -28.8854310688645 49.5320934252075
  endloop
endfacet
facet normal 0.92387953251126 -0.382683432365151 4.62805484969406e-008
  outer loop
    vertex -43.4890190744643 -29.4457907389697 49.5320932678332
    vertex -43.3641436450726 -29.1443146023198 51.0320933380346
    vertex -43.4890191732035 -29.4457907959418 51.0320932678332
  endloop
endfacet
facet normal 0.92387953251126 -0.382683432365151 4.62805484969406e-008
  outer loop
    vertex -43.3641436450726 -29.1443146023198 51.0320933380346
    vertex -43.4890190744643 -29.4457907389697 49.5320932678332
    vertex -43.3641435463335 -29.1443145453478 49.5320933380346
  endloop
endfacet
facet normal 0.991444861373806 -0.130526192220076 6.03053921976196e-008
  outer loop
    vertex -43.531611791603 -29.7693145453478 49.5320932193873
    vertex -43.4890191732035 -29.4457907959418 51.0320932678332
    vertex -43.5316118903421 -29.7693146023199 51.0320932193873
  endloop
endfacet
facet normal 0.991444861373806 -0.130526192220076 6.03053921976196e-008
  outer loop
    vertex -43.4890191732035 -29.4457907959418 51.0320932678332
    vertex -43.531611791603 -29.7693145453478 49.5320932193873
    vertex -43.4890190744643 -29.4457907389697 49.5320932678332
  endloop
endfacet
facet normal 0.991444861373807 0.130526192220062 7.0220523078161e-008
  outer loop
    vertex -43.4890190744643 -30.0928383517259 49.5320931959984
    vertex -43.5316118903421 -29.7693146023199 51.0320932193873
    vertex -43.4890191732035 -30.092838408698 51.0320931959984
  endloop
endfacet
facet normal 0.991444861373807 0.130526192220062 7.0220523078161e-008
  outer loop
    vertex -43.5316118903421 -29.7693146023199 51.0320932193873
    vertex -43.4890190744643 -30.0928383517259 49.5320931959984
    vertex -43.531611791603 -29.7693145453478 49.5320932193873
  endloop
endfacet
facet normal 0.923879532511262 0.382683432365142 7.53502413579981e-008
  outer loop
    vertex -43.3641435463335 -30.3943145453478 49.5320931992605
    vertex -43.4890191732035 -30.092838408698 51.0320931959984
    vertex -43.3641436450726 -30.3943146023199 51.0320931992605
  endloop
endfacet
facet normal 0.923879532511262 0.382683432365142 7.53502413579981e-008
  outer loop
    vertex -43.4890191732035 -30.092838408698 51.0320931959984
    vertex -43.3641435463335 -30.3943145453478 49.5320931992605
    vertex -43.4890190744643 -30.0928383517259 49.5320931959984
  endloop
endfacet
facet normal 0.793353340291149 0.608761429008829 7.53449652059397e-008
  outer loop
    vertex -43.165495268086 -30.6531980218311 49.5320932289511
    vertex -43.3641436450726 -30.3943146023199 51.0320931992605
    vertex -43.1654953668252 -30.6531980788032 51.0320932289511
  endloop
endfacet
facet normal 0.793353340291149 0.608761429008829 7.53449652059397e-008
  outer loop
    vertex -43.3641436450726 -30.3943146023199 51.0320931992605
    vertex -43.165495268086 -30.6531980218311 49.5320932289511
    vertex -43.3641435463335 -30.3943145453478 49.5320931992605
  endloop
endfacet
facet normal 0.608761429008733 0.793353340291223 7.02050541876644e-008
  outer loop
    vertex -43.1654953668252 -30.6531980788032 51.0320932289511
    vertex -42.9066117916029 -30.8518463000784 49.5320932830471
    vertex -43.165495268086 -30.6531980218311 49.5320932289511
  endloop
endfacet
facet normal 0.608761429008733 0.793353340291223 7.02050541876644e-008
  outer loop
    vertex -42.9066117916029 -30.8518463000784 49.5320932830471
    vertex -43.1654953668252 -30.6531980788032 51.0320932289511
    vertex -42.9066118903421 -30.8518463570505 51.0320932830471
  endloop
endfacet
facet normal 0.382683432365129 0.923879532511269 6.02807847499975e-008
  outer loop
    vertex -42.9066118903421 -30.8518463570505 51.0320932830471
    vertex -42.605135597981 -30.9767218282092 49.5320933578617
    vertex -42.9066117916029 -30.8518463000784 49.5320932830471
  endloop
endfacet
facet normal 0.382683432365129 0.923879532511269 6.02807847499975e-008
  outer loop
    vertex -42.605135597981 -30.9767218282092 49.5320933578617
    vertex -42.9066118903421 -30.8518463570505 51.0320932830471
    vertex -42.6051356967202 -30.9767218851813 51.0320933578617
  endloop
endfacet
facet normal 0.130526192220054 0.991444861373809 4.62484794495556e-008
  outer loop
    vertex -42.6051356967202 -30.9767218851813 51.0320933578617
    vertex -42.2816117916029 -31.0193145453479 49.5320934482965
    vertex -42.605135597981 -30.9767218282092 49.5320933578617
  endloop
endfacet
facet normal 0.130526192220054 0.991444861373809 4.62484794495556e-008
  outer loop
    vertex -42.2816117916029 -31.0193145453479 49.5320934482965
    vertex -42.6051356967202 -30.9767218851813 51.0320933578617
    vertex -42.2816118903421 -31.01931460232 51.0320934482965
  endloop
endfacet
facet normal -0.13052619222004 0.991444861373812 2.90644167032449e-008
  outer loop
    vertex -42.2816118903421 -31.01931460232 51.0320934482965
    vertex -41.9580879852247 -30.9767218282092 49.5320935481886
    vertex -42.2816117916029 -31.0193145453479 49.5320934482965
  endloop
endfacet
facet normal -0.13052619222004 0.991444861373812 2.90644167032449e-008
  outer loop
    vertex -41.9580879852247 -30.9767218282092 49.5320935481886
    vertex -42.2816118903421 -31.01931460232 51.0320934482965
    vertex -41.9580880839638 -30.9767218851813 51.0320935481886
  endloop
endfacet
facet normal -0.382683432365243 0.923879532511223 9.8996619903914e-009
  outer loop
    vertex -41.9580880839638 -30.9767218851813 51.0320935481886
    vertex -41.6566117916029 -30.8518463000784 49.5320936507304
    vertex -41.9580879852247 -30.9767218282092 49.5320935481886
  endloop
endfacet
facet normal -0.382683432365243 0.923879532511223 9.8996619903914e-009
  outer loop
    vertex -41.6566117916029 -30.8518463000784 49.5320936507304
    vertex -41.9580880839638 -30.9767218851813 51.0320935481886
    vertex -41.656611890342 -30.8518463570505 51.0320936507304
  endloop
endfacet
facet normal -0.608761429008474 0.793353340291424 -9.93973832641069e-009
  outer loop
    vertex -41.656611890342 -30.8518463570505 51.0320936507304
    vertex -41.3977283151196 -30.6531980218311 49.5320937489339
    vertex -41.6566117916029 -30.8518463000784 49.5320936507304
  endloop
endfacet
facet normal -0.608761429008474 0.793353340291424 -9.93973832641069e-009
  outer loop
    vertex -41.3977283151196 -30.6531980218311 49.5320937489339
    vertex -41.656611890342 -30.8518463570505 51.0320936507304
    vertex -41.3977284138588 -30.6531980788032 51.0320937489339
  endloop
endfacet
facet normal -0.793353340291417 0.608761429008483 -2.91017619004152e-008
  outer loop
    vertex -41.1990801356115 -30.3943146023199 51.0320938361067
    vertex -41.3977283151196 -30.6531980218311 49.5320937489339
    vertex -41.3977284138588 -30.6531980788032 51.0320937489339
  endloop
endfacet
facet normal -0.793353340291417 0.608761429008483 -2.91017619004152e-008
  outer loop
    vertex -41.3977283151196 -30.6531980218311 49.5320937489339
    vertex -41.1990801356115 -30.3943146023199 51.0320938361067
    vertex -41.1990800368723 -30.3943145453478 49.5320938361067
  endloop
endfacet
facet normal -0.92387953251126 0.382683432365151 -4.62805484969406e-008
  outer loop
    vertex -41.0742046074806 -30.092838408698 51.0320939063081
    vertex -41.1990800368723 -30.3943145453478 49.5320938361067
    vertex -41.1990801356115 -30.3943146023199 51.0320938361067
  endloop
endfacet
facet normal -0.92387953251126 0.382683432365151 -4.62805484969406e-008
  outer loop
    vertex -41.1990800368723 -30.3943145453478 49.5320938361067
    vertex -41.0742046074806 -30.092838408698 51.0320939063081
    vertex -41.0742045087415 -30.0928383517259 49.5320939063081
  endloop
endfacet
facet normal -0.991444861373806 0.130526192220076 -6.03053921976196e-008
  outer loop
    vertex -41.031611890342 -29.7693146023199 51.0320939547541
    vertex -41.0742045087415 -30.0928383517259 49.5320939063081
    vertex -41.0742046074806 -30.092838408698 51.0320939063081
  endloop
endfacet
facet normal -0.991444861373806 0.130526192220076 -6.03053921976196e-008
  outer loop
    vertex -41.0742045087415 -30.0928383517259 49.5320939063081
    vertex -41.031611890342 -29.7693146023199 51.0320939547541
    vertex -41.0316117916028 -29.7693145453478 49.5320939547541
  endloop
endfacet
facet normal -0.991444861373807 -0.130526192220062 -7.0220523078161e-008
  outer loop
    vertex -41.0742046074806 -29.4457907959418 51.0320939781429
    vertex -41.0316117916028 -29.7693145453478 49.5320939547541
    vertex -41.031611890342 -29.7693146023199 51.0320939547541
  endloop
endfacet
facet normal -0.991444861373807 -0.130526192220062 -7.0220523078161e-008
  outer loop
    vertex -41.0316117916028 -29.7693145453478 49.5320939547541
    vertex -41.0742046074806 -29.4457907959418 51.0320939781429
    vertex -41.0742045087415 -29.4457907389697 49.5320939781429
  endloop
endfacet
facet normal -0.923879532511262 -0.382683432365142 -7.53502413579981e-008
  outer loop
    vertex -41.1990801356115 -29.1443146023198 51.0320939748809
    vertex -41.0742045087415 -29.4457907389697 49.5320939781429
    vertex -41.0742046074806 -29.4457907959418 51.0320939781429
  endloop
endfacet
facet normal -0.923879532511262 -0.382683432365142 -7.53502413579981e-008
  outer loop
    vertex -41.0742045087415 -29.4457907389697 49.5320939781429
    vertex -41.1990801356115 -29.1443146023198 51.0320939748809
    vertex -41.1990800368723 -29.1443145453478 49.5320939748809
  endloop
endfacet
facet normal -0.793353340291149 -0.608761429008829 -7.53449652059397e-008
  outer loop
    vertex -41.397728413859 -28.8854311258366 51.0320939451902
    vertex -41.1990800368723 -29.1443145453478 49.5320939748809
    vertex -41.1990801356115 -29.1443146023198 51.0320939748809
  endloop
endfacet
facet normal -0.793353340291149 -0.608761429008829 -7.53449652059397e-008
  outer loop
    vertex -41.1990800368723 -29.1443145453478 49.5320939748809
    vertex -41.397728413859 -28.8854311258366 51.0320939451902
    vertex -41.3977283151198 -28.8854310688645 49.5320939451903
  endloop
endfacet
facet normal 5.29319152815073e-015 -0.999999999999999 -3.79813840822859e-008
  outer loop
    vertex -33.2826382915974 -65.0193145453476 49.5320935176836
    vertex -51.2805853903467 -65.0193146023197 51.0320910094396
    vertex -51.2805852916076 -65.0193145453476 49.5320910094396
  endloop
endfacet
facet normal 5.29319152815073e-015 -0.999999999999999 -3.79813840822859e-008
  outer loop
    vertex -51.2805853903467 -65.0193146023197 51.0320910094396
    vertex -33.2826382915974 -65.0193145453476 49.5320935176836
    vertex -33.2826383903366 -65.0193146023197 51.0320935176836
  endloop
endfacet
facet normal -0.999999999999998 -1.63317520012732e-014 -6.58261166464064e-008
  outer loop
    vertex -51.2805853903475 -26.5193146023198 51.032093795232
    vertex -51.2805852916076 -65.0193145453476 49.5320910094396
    vertex -51.2805853903467 -65.0193146023197 51.0320910094396
  endloop
endfacet
facet normal -0.999999999999998 -1.63317520012732e-014 -6.58261166464064e-008
  outer loop
    vertex -51.2805852916076 -65.0193145453476 49.5320910094396
    vertex -51.2805853903475 -26.5193146023198 51.032093795232
    vertex -51.2805852916084 -26.5193145453477 49.532093795232
  endloop
endfacet
facet normal 2.92857598529308e-016 0.999999999999999 3.79813840822863e-008
  outer loop
    vertex -51.2805852916084 -26.5193145453477 49.532093795232
    vertex -33.2826383903366 -26.5193146023198 51.0320936564578
    vertex -33.2826382915974 -26.5193145453477 49.5320936564578
  endloop
endfacet
facet normal 2.92857598529308e-016 0.999999999999999 3.79813840822863e-008
  outer loop
    vertex -33.2826383903366 -26.5193146023198 51.0320936564578
    vertex -51.2805852916084 -26.5193145453477 49.532093795232
    vertex -51.2805853903475 -26.5193146023198 51.032093795232
  endloop
endfacet
facet normal 0.999999999999998 -2.37271766498278e-016 6.58261091264952e-008
  outer loop
    vertex -33.2826382915974 -65.0193145453476 49.5320935176836
    vertex -33.2826383903366 -26.5193146023198 51.0320936564578
    vertex -33.2826383903366 -65.0193146023197 51.0320935176836
  endloop
endfacet
facet normal 0.999999999999998 -2.37271766498278e-016 6.58261091264952e-008
  outer loop
    vertex -33.2826383903366 -26.5193146023198 51.0320936564578
    vertex -33.2826382915974 -65.0193145453476 49.5320935176836
    vertex -33.2826382915974 -26.5193145453477 49.5320936564578
  endloop
endfacet
facet normal -6.58261152230938e-008 -3.79813837893034e-008 0.999999999999997
  outer loop
    vertex -51.2805853903467 -65.0193146023197 51.0320910094396
    vertex -43.531611890342 -61.7693146023198 51.0320932193873
    vertex -43.5316118903421 -29.7693146023199 51.0320932193873
  endloop
endfacet
facet normal -6.58261152230938e-008 -3.79813837893034e-008 0.999999999999997
  outer loop
    vertex -43.531611890342 -61.7693146023198 51.0320932193873
    vertex -51.2805853903467 -65.0193146023197 51.0320910094396
    vertex -43.4890191732033 -62.092838408698 51.0320931959984
  endloop
endfacet
facet normal -6.58261152230938e-008 -3.79813837893034e-008 0.999999999999997
  outer loop
    vertex -43.4890191732033 -62.092838408698 51.0320931959984
    vertex -51.2805853903467 -65.0193146023197 51.0320910094396
    vertex -43.3641436450725 -62.3943146023199 51.0320931992605
  endloop
endfacet
facet normal -6.58261152230938e-008 -3.79813837893034e-008 0.999999999999997
  outer loop
    vertex -43.3641436450725 -62.3943146023199 51.0320931992605
    vertex -51.2805853903467 -65.0193146023197 51.0320910094396
    vertex -43.1654953668252 -62.6531980788029 51.0320932289511
  endloop
endfacet
facet normal -6.58261152230938e-008 -3.79813837893034e-008 0.999999999999997
  outer loop
    vertex -43.1654953668252 -62.6531980788029 51.0320932289511
    vertex -51.2805853903467 -65.0193146023197 51.0320910094396
    vertex -42.9066118903419 -62.8518463570504 51.032093283047
  endloop
endfacet
facet normal -6.58261152230938e-008 -3.79813837893034e-008 0.999999999999997
  outer loop
    vertex -42.9066118903419 -62.8518463570504 51.032093283047
    vertex -51.2805853903467 -65.0193146023197 51.0320910094396
    vertex -42.6051356967202 -62.9767218851811 51.0320933578617
  endloop
endfacet
facet normal -6.58261152230938e-008 -3.79813837893034e-008 0.999999999999997
  outer loop
    vertex -42.6051356967202 -62.9767218851811 51.0320933578617
    vertex -51.2805853903467 -65.0193146023197 51.0320910094396
    vertex -33.2826383903366 -65.0193146023197 51.0320935176836
  endloop
endfacet
facet normal -6.58261152230938e-008 -3.79813837893034e-008 0.999999999999997
  outer loop
    vertex -42.6051356967202 -62.9767218851811 51.0320933578617
    vertex -33.2826383903366 -65.0193146023197 51.0320935176836
    vertex -42.2816118903421 -63.0193146023197 51.0320934482965
  endloop
endfacet
facet normal -6.58261152230938e-008 -3.79813837893034e-008 0.999999999999997
  outer loop
    vertex -42.2816118903421 -63.0193146023197 51.0320934482965
    vertex -33.2826383903366 -65.0193146023197 51.0320935176836
    vertex -41.9580880839639 -62.9767218851811 51.0320935481886
  endloop
endfacet
facet normal -6.58261152230938e-008 -3.79813837893034e-008 0.999999999999997
  outer loop
    vertex -41.9580880839639 -62.9767218851811 51.0320935481886
    vertex -33.2826383903366 -65.0193146023197 51.0320935176836
    vertex -41.656611890342 -62.8518463570504 51.0320936507304
  endloop
endfacet
facet normal -6.58261152230938e-008 -3.79813837893034e-008 0.999999999999997
  outer loop
    vertex -41.656611890342 -62.8518463570504 51.0320936507304
    vertex -33.2826383903366 -65.0193146023197 51.0320935176836
    vertex -41.397728413859 -62.6531980788029 51.0320937489339
  endloop
endfacet
facet normal -6.58261152230938e-008 -3.79813837893034e-008 0.999999999999997
  outer loop
    vertex -41.397728413859 -62.6531980788029 51.0320937489339
    vertex -33.2826383903366 -65.0193146023197 51.0320935176836
    vertex -41.1990801356116 -62.3943146023199 51.0320938361067
  endloop
endfacet
facet normal -6.58261152230938e-008 -3.79813837893034e-008 0.999999999999997
  outer loop
    vertex -41.1990801356116 -62.3943146023199 51.0320938361067
    vertex -33.2826383903366 -65.0193146023197 51.0320935176836
    vertex -41.0742046074808 -62.092838408698 51.0320939063081
  endloop
endfacet
facet normal -6.58261152230938e-008 -3.79813837893034e-008 0.999999999999997
  outer loop
    vertex -41.0742046074808 -62.092838408698 51.0320939063081
    vertex -33.2826383903366 -65.0193146023197 51.0320935176836
    vertex -41.0316118903422 -61.7693146023198 51.0320939547541
  endloop
endfacet
facet normal -6.58261152230938e-008 -3.79813837893034e-008 0.999999999999997
  outer loop
    vertex -41.0316118903422 -61.7693146023198 51.0320939547541
    vertex -33.2826383903366 -65.0193146023197 51.0320935176836
    vertex -41.031611890342 -29.7693146023199 51.0320939547541
  endloop
endfacet
facet normal -6.58261152230938e-008 -3.79813837893034e-008 0.999999999999997
  outer loop
    vertex -51.2805853903475 -26.5193146023198 51.032093795232
    vertex -42.6051356967203 -28.5619073194585 51.0320936259528
    vertex -33.2826383903366 -26.5193146023198 51.0320936564578
  endloop
endfacet
facet normal -6.58261152230938e-008 -3.79813837893034e-008 0.999999999999997
  outer loop
    vertex -42.6051356967203 -28.5619073194585 51.0320936259528
    vertex -51.2805853903475 -26.5193146023198 51.032093795232
    vertex -42.9066118903421 -28.6867828475893 51.032093523411
  endloop
endfacet
facet normal -6.58261152230938e-008 -3.79813837893034e-008 0.999999999999997
  outer loop
    vertex -42.9066118903421 -28.6867828475893 51.032093523411
    vertex -51.2805853903475 -26.5193146023198 51.032093795232
    vertex -43.1654953668253 -28.8854311258366 51.0320934252075
  endloop
endfacet
facet normal -6.58261152230938e-008 -3.79813837893034e-008 0.999999999999997
  outer loop
    vertex -43.1654953668253 -28.8854311258366 51.0320934252075
    vertex -51.2805853903475 -26.5193146023198 51.032093795232
    vertex -43.3641436450726 -29.1443146023198 51.0320933380346
  endloop
endfacet
facet normal -6.58261152230938e-008 -3.79813837893034e-008 0.999999999999997
  outer loop
    vertex -43.3641436450726 -29.1443146023198 51.0320933380346
    vertex -51.2805853903475 -26.5193146023198 51.032093795232
    vertex -43.4890191732035 -29.4457907959418 51.0320932678332
  endloop
endfacet
facet normal -6.58261152230938e-008 -3.79813837893034e-008 0.999999999999997
  outer loop
    vertex -43.4890191732035 -29.4457907959418 51.0320932678332
    vertex -51.2805853903475 -26.5193146023198 51.032093795232
    vertex -51.2805853903467 -65.0193146023197 51.0320910094396
  endloop
endfacet
facet normal -6.58261152230938e-008 -3.79813837893034e-008 0.999999999999997
  outer loop
    vertex -43.4890191732035 -29.4457907959418 51.0320932678332
    vertex -51.2805853903467 -65.0193146023197 51.0320910094396
    vertex -43.5316118903421 -29.7693146023199 51.0320932193873
  endloop
endfacet
facet normal -6.58261152230938e-008 -3.79813837893034e-008 0.999999999999997
  outer loop
    vertex -33.2826383903366 -26.5193146023198 51.0320936564578
    vertex -42.6051356967203 -28.5619073194585 51.0320936259528
    vertex -42.2816118903421 -28.5193146023198 51.0320937258449
  endloop
endfacet
facet normal -6.58261152230938e-008 -3.79813837893034e-008 0.999999999999997
  outer loop
    vertex -33.2826383903366 -26.5193146023198 51.0320936564578
    vertex -42.2816118903421 -28.5193146023198 51.0320937258449
    vertex -41.9580880839639 -28.5619073194585 51.0320938162797
  endloop
endfacet
facet normal -6.58261152230938e-008 -3.79813837893034e-008 0.999999999999997
  outer loop
    vertex -33.2826383903366 -26.5193146023198 51.0320936564578
    vertex -41.9580880839639 -28.5619073194585 51.0320938162797
    vertex -41.656611890342 -28.6867828475893 51.0320938910943
  endloop
endfacet
facet normal -6.58261152230938e-008 -3.79813837893034e-008 0.999999999999997
  outer loop
    vertex -33.2826383903366 -26.5193146023198 51.0320936564578
    vertex -41.656611890342 -28.6867828475893 51.0320938910943
    vertex -41.397728413859 -28.8854311258366 51.0320939451902
  endloop
endfacet
facet normal -6.58261152230938e-008 -3.79813837893034e-008 0.999999999999997
  outer loop
    vertex -33.2826383903366 -26.5193146023198 51.0320936564578
    vertex -41.397728413859 -28.8854311258366 51.0320939451902
    vertex -41.1990801356115 -29.1443146023198 51.0320939748809
  endloop
endfacet
facet normal -6.58261152230938e-008 -3.79813837893034e-008 0.999999999999997
  outer loop
    vertex -33.2826383903366 -26.5193146023198 51.0320936564578
    vertex -41.1990801356115 -29.1443146023198 51.0320939748809
    vertex -41.0742046074806 -29.4457907959418 51.0320939781429
  endloop
endfacet
facet normal -6.58261152230938e-008 -3.79813837893034e-008 0.999999999999997
  outer loop
    vertex -33.2826383903366 -26.5193146023198 51.0320936564578
    vertex -41.0742046074806 -29.4457907959418 51.0320939781429
    vertex -41.031611890342 -29.7693146023199 51.0320939547541
  endloop
endfacet
facet normal -6.58261152230938e-008 -3.79813837893034e-008 0.999999999999997
  outer loop
    vertex -33.2826383903366 -26.5193146023198 51.0320936564578
    vertex -41.031611890342 -29.7693146023199 51.0320939547541
    vertex -33.2826383903366 -65.0193146023197 51.0320935176836
  endloop
endfacet
facet normal -6.58261152230938e-008 -3.79813837893034e-008 0.999999999999997
  outer loop
    vertex -43.531611890342 -61.7693146023198 51.0320932193873
    vertex -43.4890191732035 -30.092838408698 51.0320931959984
    vertex -43.5316118903421 -29.7693146023199 51.0320932193873
  endloop
endfacet
facet normal -6.58261152230938e-008 -3.79813837893034e-008 0.999999999999997
  outer loop
    vertex -43.4890191732035 -30.092838408698 51.0320931959984
    vertex -43.531611890342 -61.7693146023198 51.0320932193873
    vertex -43.4890191732033 -61.4457907959417 51.0320932678332
  endloop
endfacet
facet normal -6.58261152230938e-008 -3.79813837893034e-008 0.999999999999997
  outer loop
    vertex -43.4890191732035 -30.092838408698 51.0320931959984
    vertex -43.4890191732033 -61.4457907959417 51.0320932678332
    vertex -43.3641436450726 -30.3943146023199 51.0320931992605
  endloop
endfacet
facet normal -6.58261152230938e-008 -3.79813837893034e-008 0.999999999999997
  outer loop
    vertex -43.3641436450726 -30.3943146023199 51.0320931992605
    vertex -43.4890191732033 -61.4457907959417 51.0320932678332
    vertex -43.3641436450725 -61.1443146023198 51.0320933380346
  endloop
endfacet
facet normal -6.58261152230938e-008 -3.79813837893034e-008 0.999999999999997
  outer loop
    vertex -43.3641436450726 -30.3943146023199 51.0320931992605
    vertex -43.3641436450725 -61.1443146023198 51.0320933380346
    vertex -43.1654953668252 -30.6531980788032 51.0320932289511
  endloop
endfacet
facet normal -6.58261152230938e-008 -3.79813837893034e-008 0.999999999999997
  outer loop
    vertex -43.1654953668252 -30.6531980788032 51.0320932289511
    vertex -43.3641436450725 -61.1443146023198 51.0320933380346
    vertex -43.1654953668252 -60.8854311258367 51.0320934252075
  endloop
endfacet
facet normal -6.58261152230938e-008 -3.79813837893034e-008 0.999999999999997
  outer loop
    vertex -43.1654953668252 -30.6531980788032 51.0320932289511
    vertex -43.1654953668252 -60.8854311258367 51.0320934252075
    vertex -42.9066118903421 -60.6867828475892 51.032093523411
  endloop
endfacet
facet normal -6.58261152230938e-008 -3.79813837893034e-008 0.999999999999997
  outer loop
    vertex -43.1654953668252 -30.6531980788032 51.0320932289511
    vertex -42.9066118903421 -60.6867828475892 51.032093523411
    vertex -42.9066118903421 -30.8518463570505 51.0320932830471
  endloop
endfacet
facet normal -6.58261152230938e-008 -3.79813837893034e-008 0.999999999999997
  outer loop
    vertex -42.9066118903421 -30.8518463570505 51.0320932830471
    vertex -42.9066118903421 -60.6867828475892 51.032093523411
    vertex -42.6051356967202 -60.5619073194586 51.0320936259528
  endloop
endfacet
facet normal -6.58261152230938e-008 -3.79813837893034e-008 0.999999999999997
  outer loop
    vertex -42.9066118903421 -30.8518463570505 51.0320932830471
    vertex -42.6051356967202 -60.5619073194586 51.0320936259528
    vertex -42.6051356967202 -30.9767218851813 51.0320933578617
  endloop
endfacet
facet normal -6.58261152230938e-008 -3.79813837893034e-008 0.999999999999997
  outer loop
    vertex -42.6051356967202 -30.9767218851813 51.0320933578617
    vertex -42.6051356967202 -60.5619073194586 51.0320936259528
    vertex -42.2816118903421 -60.5193146023199 51.0320937258449
  endloop
endfacet
facet normal -6.58261152230938e-008 -3.79813837893034e-008 0.999999999999997
  outer loop
    vertex -42.6051356967202 -30.9767218851813 51.0320933578617
    vertex -42.2816118903421 -60.5193146023199 51.0320937258449
    vertex -42.2816118903421 -31.01931460232 51.0320934482965
  endloop
endfacet
facet normal -6.58261152230938e-008 -3.79813837893034e-008 0.999999999999997
  outer loop
    vertex -42.2816118903421 -31.01931460232 51.0320934482965
    vertex -42.2816118903421 -60.5193146023199 51.0320937258449
    vertex -41.9580880839639 -60.5619073194586 51.0320938162797
  endloop
endfacet
facet normal -6.58261152230938e-008 -3.79813837893034e-008 0.999999999999997
  outer loop
    vertex -42.2816118903421 -31.01931460232 51.0320934482965
    vertex -41.9580880839639 -60.5619073194586 51.0320938162797
    vertex -41.9580880839638 -30.9767218851813 51.0320935481886
  endloop
endfacet
facet normal -6.58261152230938e-008 -3.79813837893034e-008 0.999999999999997
  outer loop
    vertex -41.9580880839638 -30.9767218851813 51.0320935481886
    vertex -41.9580880839639 -60.5619073194586 51.0320938162797
    vertex -41.6566118903422 -60.6867828475892 51.0320938910943
  endloop
endfacet
facet normal -6.58261152230938e-008 -3.79813837893034e-008 0.999999999999997
  outer loop
    vertex -41.9580880839638 -30.9767218851813 51.0320935481886
    vertex -41.6566118903422 -60.6867828475892 51.0320938910943
    vertex -41.656611890342 -30.8518463570505 51.0320936507304
  endloop
endfacet
facet normal -6.58261152230938e-008 -3.79813837893034e-008 0.999999999999997
  outer loop
    vertex -41.656611890342 -30.8518463570505 51.0320936507304
    vertex -41.6566118903422 -60.6867828475892 51.0320938910943
    vertex -41.397728413859 -60.8854311258367 51.0320939451902
  endloop
endfacet
facet normal -6.58261152230938e-008 -3.79813837893034e-008 0.999999999999997
  outer loop
    vertex -41.656611890342 -30.8518463570505 51.0320936507304
    vertex -41.397728413859 -60.8854311258367 51.0320939451902
    vertex -41.3977284138588 -30.6531980788032 51.0320937489339
  endloop
endfacet
facet normal -6.58261152230938e-008 -3.79813837893034e-008 0.999999999999997
  outer loop
    vertex -41.3977284138588 -30.6531980788032 51.0320937489339
    vertex -41.397728413859 -60.8854311258367 51.0320939451902
    vertex -41.1990801356117 -61.1443146023198 51.0320939748809
  endloop
endfacet
facet normal -6.58261152230938e-008 -3.79813837893034e-008 0.999999999999997
  outer loop
    vertex -41.3977284138588 -30.6531980788032 51.0320937489339
    vertex -41.1990801356117 -61.1443146023198 51.0320939748809
    vertex -41.1990801356115 -30.3943146023199 51.0320938361067
  endloop
endfacet
facet normal -6.58261152230938e-008 -3.79813837893034e-008 0.999999999999997
  outer loop
    vertex -41.1990801356115 -30.3943146023199 51.0320938361067
    vertex -41.1990801356117 -61.1443146023198 51.0320939748809
    vertex -41.0742046074808 -61.4457907959417 51.0320939781429
  endloop
endfacet
facet normal -6.58261152230938e-008 -3.79813837893034e-008 0.999999999999997
  outer loop
    vertex -41.1990801356115 -30.3943146023199 51.0320938361067
    vertex -41.0742046074808 -61.4457907959417 51.0320939781429
    vertex -41.0742046074806 -30.092838408698 51.0320939063081
  endloop
endfacet
facet normal -6.58261152230938e-008 -3.79813837893034e-008 0.999999999999997
  outer loop
    vertex -41.0742046074806 -30.092838408698 51.0320939063081
    vertex -41.0742046074808 -61.4457907959417 51.0320939781429
    vertex -41.0316118903422 -61.7693146023198 51.0320939547541
  endloop
endfacet
facet normal -6.58261152230938e-008 -3.79813837893034e-008 0.999999999999997
  outer loop
    vertex -41.0742046074806 -30.092838408698 51.0320939063081
    vertex -41.0316118903422 -61.7693146023198 51.0320939547541
    vertex -41.031611890342 -29.7693146023199 51.0320939547541
  endloop
endfacet
facet normal 0.991444861373806 -0.130526192220076 6.03053921976196e-008
  outer loop
    vertex -43.5316117916028 -61.7693145453478 49.5320932193873
    vertex -43.4890191732033 -61.4457907959417 51.0320932678332
    vertex -43.531611890342 -61.7693146023198 51.0320932193873
  endloop
endfacet
facet normal 0.991444861373806 -0.130526192220076 6.03053921976196e-008
  outer loop
    vertex -43.4890191732033 -61.4457907959417 51.0320932678332
    vertex -43.5316117916028 -61.7693145453478 49.5320932193873
    vertex -43.4890190744641 -61.4457907389696 49.5320932678332
  endloop
endfacet
facet normal 0.991444861373807 0.130526192220062 7.0220523078161e-008
  outer loop
    vertex -43.4890190744641 -62.0928383517259 49.5320931959984
    vertex -43.531611890342 -61.7693146023198 51.0320932193873
    vertex -43.4890191732033 -62.092838408698 51.0320931959984
  endloop
endfacet
facet normal 0.991444861373807 0.130526192220062 7.0220523078161e-008
  outer loop
    vertex -43.531611890342 -61.7693146023198 51.0320932193873
    vertex -43.4890190744641 -62.0928383517259 49.5320931959984
    vertex -43.5316117916028 -61.7693145453478 49.5320932193873
  endloop
endfacet
facet normal 0.923879532511262 0.382683432365142 7.53502413579981e-008
  outer loop
    vertex -43.3641435463333 -62.3943145453478 49.5320931992605
    vertex -43.4890191732033 -62.092838408698 51.0320931959984
    vertex -43.3641436450725 -62.3943146023199 51.0320931992605
  endloop
endfacet
facet normal 0.923879532511262 0.382683432365142 7.53502413579981e-008
  outer loop
    vertex -43.4890191732033 -62.092838408698 51.0320931959984
    vertex -43.3641435463333 -62.3943145453478 49.5320931992605
    vertex -43.4890190744641 -62.0928383517259 49.5320931959984
  endloop
endfacet
facet normal 0.793353340291211 0.608761429008748 7.53449651997743e-008
  outer loop
    vertex -43.165495268086 -62.6531980218309 49.5320932289511
    vertex -43.3641436450725 -62.3943146023199 51.0320931992605
    vertex -43.1654953668252 -62.6531980788029 51.0320932289511
  endloop
endfacet
facet normal 0.793353340291211 0.608761429008748 7.53449651997743e-008
  outer loop
    vertex -43.3641436450725 -62.3943146023199 51.0320931992605
    vertex -43.165495268086 -62.6531980218309 49.5320932289511
    vertex -43.3641435463333 -62.3943145453478 49.5320931992605
  endloop
endfacet
facet normal 0.608761429008814 0.79335334029116 7.02050541932833e-008
  outer loop
    vertex -43.1654953668252 -62.6531980788029 51.0320932289511
    vertex -42.9066117916027 -62.8518463000783 49.5320932830471
    vertex -43.165495268086 -62.6531980218309 49.5320932289511
  endloop
endfacet
facet normal 0.608761429008814 0.79335334029116 7.02050541932833e-008
  outer loop
    vertex -42.9066117916027 -62.8518463000783 49.5320932830471
    vertex -43.1654953668252 -62.6531980788029 51.0320932289511
    vertex -42.9066118903419 -62.8518463570504 51.032093283047
  endloop
endfacet
facet normal 0.382683432364852 0.923879532511383 6.02807847499868e-008
  outer loop
    vertex -42.9066118903419 -62.8518463570504 51.032093283047
    vertex -42.605135597981 -62.976721828209 49.5320933578617
    vertex -42.9066117916027 -62.8518463000783 49.5320932830471
  endloop
endfacet
facet normal 0.382683432364852 0.923879532511383 6.02807847499868e-008
  outer loop
    vertex -42.605135597981 -62.976721828209 49.5320933578617
    vertex -42.9066118903419 -62.8518463570504 51.032093283047
    vertex -42.6051356967202 -62.9767218851811 51.0320933578617
  endloop
endfacet
facet normal 0.130526192220054 0.991444861373809 4.62484794504516e-008
  outer loop
    vertex -42.6051356967202 -62.9767218851811 51.0320933578617
    vertex -42.2816117916029 -63.0193145453476 49.5320934482965
    vertex -42.605135597981 -62.976721828209 49.5320933578617
  endloop
endfacet
facet normal 0.130526192220054 0.991444861373809 4.62484794504516e-008
  outer loop
    vertex -42.2816117916029 -63.0193145453476 49.5320934482965
    vertex -42.6051356967202 -62.9767218851811 51.0320933578617
    vertex -42.2816118903421 -63.0193146023197 51.0320934482965
  endloop
endfacet
facet normal -0.130526192220076 0.991444861373807 2.90644167032428e-008
  outer loop
    vertex -42.2816118903421 -63.0193146023197 51.0320934482965
    vertex -41.9580879852248 -62.976721828209 49.5320935481886
    vertex -42.2816117916029 -63.0193145453476 49.5320934482965
  endloop
endfacet
facet normal -0.130526192220076 0.991444861373807 2.90644167032428e-008
  outer loop
    vertex -41.9580879852248 -62.976721828209 49.5320935481886
    vertex -42.2816118903421 -63.0193146023197 51.0320934482965
    vertex -41.9580880839639 -62.9767218851811 51.0320935481886
  endloop
endfacet
facet normal -0.382683432364673 0.923879532511459 9.8996619904287e-009
  outer loop
    vertex -41.9580880839639 -62.9767218851811 51.0320935481886
    vertex -41.6566117916029 -62.8518463000783 49.5320936507304
    vertex -41.9580879852248 -62.976721828209 49.5320935481886
  endloop
endfacet
facet normal -0.382683432364673 0.923879532511459 9.8996619904287e-009
  outer loop
    vertex -41.6566117916029 -62.8518463000783 49.5320936507304
    vertex -41.9580880839639 -62.9767218851811 51.0320935481886
    vertex -41.656611890342 -62.8518463570504 51.0320936507304
  endloop
endfacet
facet normal -0.60876142900909 0.793353340290952 -9.93973832645807e-009
  outer loop
    vertex -41.656611890342 -62.8518463570504 51.0320936507304
    vertex -41.3977283151198 -62.6531980218309 49.5320937489339
    vertex -41.6566117916029 -62.8518463000783 49.5320936507304
  endloop
endfacet
facet normal -0.60876142900909 0.793353340290952 -9.93973832645807e-009
  outer loop
    vertex -41.3977283151198 -62.6531980218309 49.5320937489339
    vertex -41.656611890342 -62.8518463570504 51.0320936507304
    vertex -41.397728413859 -62.6531980788029 51.0320937489339
  endloop
endfacet
facet normal -0.793353340291079 0.608761429008924 -2.91017619112805e-008
  outer loop
    vertex -41.1990801356116 -62.3943146023199 51.0320938361067
    vertex -41.3977283151198 -62.6531980218309 49.5320937489339
    vertex -41.397728413859 -62.6531980788029 51.0320937489339
  endloop
endfacet
facet normal -0.793353340291079 0.608761429008924 -2.91017619112805e-008
  outer loop
    vertex -41.3977283151198 -62.6531980218309 49.5320937489339
    vertex -41.1990801356116 -62.3943146023199 51.0320938361067
    vertex -41.1990800368724 -62.3943145453478 49.5320938361067
  endloop
endfacet
facet normal -0.923879532511358 0.382683432364915 -4.62805484969534e-008
  outer loop
    vertex -41.0742046074808 -62.092838408698 51.0320939063081
    vertex -41.1990800368724 -62.3943145453478 49.5320938361067
    vertex -41.1990801356116 -62.3943146023199 51.0320938361067
  endloop
endfacet
facet normal -0.923879532511358 0.382683432364915 -4.62805484969534e-008
  outer loop
    vertex -41.1990800368724 -62.3943145453478 49.5320938361067
    vertex -41.0742046074808 -62.092838408698 51.0320939063081
    vertex -41.0742045087417 -62.0928383517259 49.5320939063081
  endloop
endfacet
facet normal -0.991444861373806 0.130526192220076 -6.03053921976196e-008
  outer loop
    vertex -41.0316118903422 -61.7693146023198 51.0320939547541
    vertex -41.0742045087417 -62.0928383517259 49.5320939063081
    vertex -41.0742046074808 -62.092838408698 51.0320939063081
  endloop
endfacet
facet normal -0.991444861373806 0.130526192220076 -6.03053921976196e-008
  outer loop
    vertex -41.0742045087417 -62.0928383517259 49.5320939063081
    vertex -41.0316118903422 -61.7693146023198 51.0320939547541
    vertex -41.031611791603 -61.7693145453478 49.5320939547541
  endloop
endfacet
facet normal -0.991444861373807 -0.130526192220062 -7.0220523078161e-008
  outer loop
    vertex -41.0742046074808 -61.4457907959417 51.0320939781429
    vertex -41.031611791603 -61.7693145453478 49.5320939547541
    vertex -41.0316118903422 -61.7693146023198 51.0320939547541
  endloop
endfacet
facet normal -0.991444861373807 -0.130526192220062 -7.0220523078161e-008
  outer loop
    vertex -41.031611791603 -61.7693145453478 49.5320939547541
    vertex -41.0742046074808 -61.4457907959417 51.0320939781429
    vertex -41.0742045087417 -61.4457907389696 49.5320939781429
  endloop
endfacet
facet normal -0.923879532511262 -0.382683432365142 -7.53502413579981e-008
  outer loop
    vertex -41.1990801356117 -61.1443146023198 51.0320939748809
    vertex -41.0742045087417 -61.4457907389696 49.5320939781429
    vertex -41.0742046074808 -61.4457907959417 51.0320939781429
  endloop
endfacet
facet normal -0.923879532511262 -0.382683432365142 -7.53502413579981e-008
  outer loop
    vertex -41.0742045087417 -61.4457907389696 49.5320939781429
    vertex -41.1990801356117 -61.1443146023198 51.0320939748809
    vertex -41.1990800368725 -61.1443145453477 49.5320939748809
  endloop
endfacet
facet normal -0.793353340291211 -0.608761429008748 -7.53449651997743e-008
  outer loop
    vertex -41.397728413859 -60.8854311258367 51.0320939451902
    vertex -41.1990800368725 -61.1443145453477 49.5320939748809
    vertex -41.1990801356117 -61.1443146023198 51.0320939748809
  endloop
endfacet
facet normal -0.793353340291211 -0.608761429008748 -7.53449651997743e-008
  outer loop
    vertex -41.1990800368725 -61.1443145453477 49.5320939748809
    vertex -41.397728413859 -60.8854311258367 51.0320939451902
    vertex -41.3977283151198 -60.8854310688646 49.5320939451903
  endloop
endfacet
facet normal -0.608761429008814 -0.793353340291161 -7.02050541932833e-008
  outer loop
    vertex -41.3977283151198 -60.8854310688646 49.5320939451903
    vertex -41.6566118903422 -60.6867828475892 51.0320938910943
    vertex -41.656611791603 -60.6867827906172 49.5320938910943
  endloop
endfacet
facet normal -0.608761429008814 -0.793353340291161 -7.02050541932833e-008
  outer loop
    vertex -41.6566118903422 -60.6867828475892 51.0320938910943
    vertex -41.3977283151198 -60.8854310688646 49.5320939451903
    vertex -41.397728413859 -60.8854311258367 51.0320939451902
  endloop
endfacet
facet normal -0.608761429008733 -0.793353340291223 -7.02050541876644e-008
  outer loop
    vertex -41.3977283151198 -28.8854310688645 49.5320939451903
    vertex -41.656611890342 -28.6867828475893 51.0320938910943
    vertex -41.6566117916029 -28.6867827906172 49.5320938910943
  endloop
endfacet
facet normal -0.608761429008733 -0.793353340291223 -7.02050541876644e-008
  outer loop
    vertex -41.656611890342 -28.6867828475893 51.0320938910943
    vertex -41.3977283151198 -28.8854310688645 49.5320939451903
    vertex -41.397728413859 -28.8854311258366 51.0320939451902
  endloop
endfacet
facet normal -0.382683432365129 -0.923879532511269 -6.02807847499975e-008
  outer loop
    vertex -41.6566117916029 -28.6867827906172 49.5320938910943
    vertex -41.9580880839639 -28.5619073194585 51.0320938162797
    vertex -41.9580879852248 -28.5619072624864 49.5320938162797
  endloop
endfacet
facet normal -0.382683432365129 -0.923879532511269 -6.02807847499975e-008
  outer loop
    vertex -41.9580880839639 -28.5619073194585 51.0320938162797
    vertex -41.6566117916029 -28.6867827906172 49.5320938910943
    vertex -41.656611890342 -28.6867828475893 51.0320938910943
  endloop
endfacet
facet normal -0.130526192220054 -0.991444861373809 -4.62484794495556e-008
  outer loop
    vertex -41.9580879852248 -28.5619072624864 49.5320938162797
    vertex -42.2816118903421 -28.5193146023198 51.0320937258449
    vertex -42.2816117916029 -28.5193145453477 49.5320937258449
  endloop
endfacet
facet normal -0.130526192220054 -0.991444861373809 -4.62484794495556e-008
  outer loop
    vertex -42.2816118903421 -28.5193146023198 51.0320937258449
    vertex -41.9580879852248 -28.5619072624864 49.5320938162797
    vertex -41.9580880839639 -28.5619073194585 51.0320938162797
  endloop
endfacet
facet normal 0.13052619222004 -0.991444861373812 -2.90644167032449e-008
  outer loop
    vertex -42.2816117916029 -28.5193145453477 49.5320937258449
    vertex -42.6051356967203 -28.5619073194585 51.0320936259528
    vertex -42.6051355979811 -28.5619072624864 49.5320936259528
  endloop
endfacet
facet normal 0.13052619222004 -0.991444861373812 -2.90644167032449e-008
  outer loop
    vertex -42.6051356967203 -28.5619073194585 51.0320936259528
    vertex -42.2816117916029 -28.5193145453477 49.5320937258449
    vertex -42.2816118903421 -28.5193146023198 51.0320937258449
  endloop
endfacet
facet normal 0.382683432365243 -0.923879532511223 -9.8996619903914e-009
  outer loop
    vertex -42.6051355979811 -28.5619072624864 49.5320936259528
    vertex -42.9066118903421 -28.6867828475893 51.032093523411
    vertex -42.9066117916029 -28.6867827906172 49.532093523411
  endloop
endfacet
facet normal 0.382683432365243 -0.923879532511223 -9.8996619903914e-009
  outer loop
    vertex -42.9066118903421 -28.6867828475893 51.032093523411
    vertex -42.6051355979811 -28.5619072624864 49.5320936259528
    vertex -42.6051356967203 -28.5619073194585 51.0320936259528
  endloop
endfacet
facet normal 0.608761429008474 -0.793353340291424 9.93973832641069e-009
  outer loop
    vertex -42.9066117916029 -28.6867827906172 49.532093523411
    vertex -43.1654953668253 -28.8854311258366 51.0320934252075
    vertex -43.1654952680862 -28.8854310688645 49.5320934252075
  endloop
endfacet
facet normal 0.608761429008474 -0.793353340291424 9.93973832641069e-009
  outer loop
    vertex -43.1654953668253 -28.8854311258366 51.0320934252075
    vertex -42.9066117916029 -28.6867827906172 49.532093523411
    vertex -42.9066118903421 -28.6867828475893 51.032093523411
  endloop
endfacet
endsolid GTS-1000
